<svg xmlns="http://www.w3.org/2000/svg" width="31.957" height="23.81" viewBox="0 0 31.957 23.81"><g transform="translate(-81.572 -426.763)"><g transform="translate(82.074 427.264)"><path d="M29.072,15.575a15.579,15.579,0,0,0-13.946-9.95,15.579,15.579,0,0,0-13.945,9.95.933.933,0,0,0,0,.635A15.579,15.579,0,0,0,15.126,26.16a15.579,15.579,0,0,0,13.946-9.95.933.933,0,0,0,0-.635ZM15.126,24.293c-4.947,0-10.175-3.668-12.069-8.4,1.894-4.733,7.121-8.4,12.069-8.4S25.3,11.16,27.2,15.893C25.3,20.625,20.074,24.293,15.126,24.293Z" transform="translate(-1.126 -5.625)" fill="#fff" stroke="#fff" stroke-width="1"/><path d="M16.851,11.25a5.6,5.6,0,1,0,5.6,5.6A5.6,5.6,0,0,0,16.851,11.25Zm0,9.334a3.734,3.734,0,1,1,3.734-3.734A3.734,3.734,0,0,1,16.851,20.584Z" transform="translate(-2.85 -6.583)" fill="#fff" stroke="#fff" stroke-width="1"/></g><g transform="translate(96.324 436.895)"><rect width="17" height="12" transform="translate(-0.412 0.105)" fill="#ffdd6b"/><line x2="15" transform="translate(2.205 3.859)" fill="none" stroke="#fff" stroke-width="2"/><line x2="15" transform="translate(2.205 8.268)" fill="none" stroke="#fff" stroke-width="2"/><line x2="7.5" transform="translate(2.205 12.678)" fill="none" stroke="#fff" stroke-width="2"/></g></g></svg>