<svg xmlns="http://www.w3.org/2000/svg" width="30.711" height="21.498" viewBox="0 0 30.711 21.498">
  <path id="money" d="M6.071,7.5H30.64a3.071,3.071,0,0,1,3.071,3.071V25.927A3.071,3.071,0,0,1,30.64,29H6.071A3.071,3.071,0,0,1,3,25.927V10.571A3.071,3.071,0,0,1,6.071,7.5Zm21.5,3.071H9.142a3.071,3.071,0,0,1-3.071,3.071v9.213a3.071,3.071,0,0,1,3.071,3.071H27.569a3.071,3.071,0,0,1,3.071-3.071V13.642A3.071,3.071,0,0,1,27.569,10.571ZM12.213,13.642h3.071v9.213H12.213Zm9.213,6.142a1.536,1.536,0,1,0-1.536-1.536A1.536,1.536,0,0,0,21.427,19.784Zm0,3.071a4.607,4.607,0,1,1,4.607-4.607A4.607,4.607,0,0,1,21.427,22.856Z" transform="translate(-3 -7.5)" fill="#ffb83e"/>
</svg>
