<svg xmlns="http://www.w3.org/2000/svg" width="126.104" height="126.104" viewBox="0 0 126.104 126.104">
  <g id="checkmark-outline-error" transform="translate(-2.25 -2.25)">
    <path id="Path_43" data-name="Path 43" d="M56.294,101.331a45.037,45.037,0,1,1,45.037-45.037h9.007a54.044,54.044,0,1,0-54.044,54.044Z" transform="translate(0 0)" fill="#be0f2c"/>
    <path id="Path_44" data-name="Path 44" d="M27.015,36.427,15.349,24.761,9,31.11,27.015,49.125,58.541,17.6,52.192,11.25Z" transform="translate(20.272 27.03)" fill="#be0f2c"/>
    <path id="Path_45" data-name="Path 45" d="M74.294,47.272A27.022,27.022,0,1,0,47.272,74.294,27.022,27.022,0,0,0,74.294,47.272Zm-9.007,0a17.8,17.8,0,0,1-2.554,9.091L38.181,31.812a17.8,17.8,0,0,1,9.091-2.554A18.039,18.039,0,0,1,65.287,47.272Zm-36.03,0a17.8,17.8,0,0,1,2.554-9.091L56.364,62.733a17.8,17.8,0,0,1-9.091,2.554A18.039,18.039,0,0,1,29.257,47.272Z" transform="translate(54.059 54.059)" fill="#be0f2c"/>
  </g>
</svg>
