<svg xmlns="http://www.w3.org/2000/svg" width="114.769" height="100.518" viewBox="0 0 114.769 100.518">
  <g id="certificate-check" transform="translate(-0.75 -3)">
    <path id="Path_38" data-name="Path 38" d="M6.75,18H30.567v7.939H6.75Z" transform="translate(11.378 34.135)" fill="#65d793" stroke="#65d793" stroke-width="3"/>
    <path id="Path_39" data-name="Path 39" d="M6.75,13.5h39.7v7.939H6.75Z" transform="translate(11.378 22.757)" fill="#65d793" stroke="#65d793" stroke-width="3"/>
    <path id="Path_40" data-name="Path 40" d="M6.75,9h39.7v7.939H6.75Z" transform="translate(11.378 11.378)" fill="#65d793" stroke="#65d793" stroke-width="3"/>
    <path id="Path_41" data-name="Path 41" d="M49.885,91.831h-39.7V12.439h95.27v39.7H113.4v-39.7A7.939,7.939,0,0,0,105.459,4.5H10.189A7.939,7.939,0,0,0,2.25,12.439V91.831a7.939,7.939,0,0,0,7.939,7.939h39.7Z" transform="translate(0)" fill="#65d793" stroke="#65d793" stroke-width="3"/>
    <path id="Path_42" data-name="Path 42" d="M36.128,47.535,25.846,37.253l-5.6,5.6L36.128,58.728,67.885,26.971l-5.6-5.6Z" transform="translate(45.513 42.669)" fill="#65d793" stroke="#65d793" stroke-width="3"/>
  </g>
</svg>
