<svg xmlns="http://www.w3.org/2000/svg" width="31.749" height="28.195" viewBox="0 0 31.749 28.195"><g transform="translate(-58.473 -583.805)"><g transform="translate(56.723 582.055)"><path d="M14.366,21.208l-4.241-4.242,1.2-1.2,3.042,3.041L20.8,12.375l1.2,1.2Z" transform="translate(-1.938 -2.491)" fill="#fff" stroke="#fff" stroke-width="1"/><path d="M14.125,2.25A11.875,11.875,0,1,0,26,14.125,11.875,11.875,0,0,0,14.125,2.25Zm0,22.053A10.178,10.178,0,1,1,24.3,14.125,10.178,10.178,0,0,1,14.125,24.3Z" transform="translate(0 0)" fill="#fff" stroke="#fff" stroke-width="1"/></g><rect width="16" height="14" rx="3" transform="translate(72 598)" fill="#ff7070"/><g transform="translate(54.972 580.5)"><path d="M20.25,29.25h7.5V31.5h-7.5Z" fill="#fff"/><path d="M20.25,24.75h15V27h-15Z" fill="#fff"/><path d="M20.25,20.25h15V22.5h-15Z" fill="#fff"/></g></g></svg>